<svg width="28" height="27" viewBox="0 0 28 27" fill="none" xmlns="http://www.w3.org/2000/svg">
<path d="M7.58407 22.9587C6.37061 22.9587 5.15716 21.8566 4.55044 21.3843C1.51681 19.1802 0.606725 18.393 0 17.9207V24.5331C0 25.4024 0.679248 26.1074 1.51681 26.1074H13.6513C14.4889 26.1074 15.1681 25.4024 15.1681 24.5331V17.9207C14.5614 18.393 13.6513 19.1802 10.6177 21.3843C10.011 21.8566 8.79752 22.9587 7.58407 22.9587ZM13.6513 13.5124H1.51681C0.679248 13.5124 0 14.2174 0 15.0868V15.874C1.21345 16.8186 1.06177 16.8186 5.46053 20.1248C5.91557 20.4397 6.82566 21.3843 7.58407 21.3843C8.34247 21.3843 9.25256 20.4397 9.7076 20.2822C14.1064 16.976 13.9547 16.976 15.1681 16.0314V15.0868C15.1681 14.2174 14.4889 13.5124 13.6513 13.5124ZM25.7858 8.78926H10.6177C9.78013 8.78926 9.10088 9.49428 9.10088 10.3636V11.938H13.6513C15.2255 11.938 16.5233 13.1887 16.6712 14.7827L16.6849 14.7719V21.3843H25.7858C26.6234 21.3843 27.3026 20.6793 27.3026 19.8099V10.3636C27.3026 9.49428 26.6234 8.78926 25.7858 8.78926ZM24.269 15.0868H21.2354V11.938H24.269V15.0868ZM7.58407 10.3636C7.58407 8.62739 8.94493 7.21488 10.6177 7.21488H21.2354V2.49174C21.2354 1.62239 20.5561 0.917358 19.7186 0.917358H4.55044C3.71287 0.917358 3.03363 1.62239 3.03363 2.49174V11.938H7.58407V10.3636Z" fill="#2DEBDB"/>
</svg>
