<svg width="22" height="22" viewBox="0 0 22 22" fill="none" xmlns="http://www.w3.org/2000/svg">
<path d="M10.946 5.31582C7.84058 5.31582 5.33569 7.81366 5.33569 10.9104C5.33569 14.0071 7.84058 16.505 10.946 16.505C14.0515 16.505 16.5564 14.0071 16.5564 10.9104C16.5564 7.81366 14.0515 5.31582 10.946 5.31582ZM10.946 14.5476C8.93921 14.5476 7.29858 12.9165 7.29858 10.9104C7.29858 8.90434 8.93433 7.27319 10.946 7.27319C12.9578 7.27319 14.5935 8.90434 14.5935 10.9104C14.5935 12.9165 12.9529 14.5476 10.946 14.5476ZM18.0945 5.08698C18.0945 5.81247 17.5085 6.39189 16.7859 6.39189C16.0584 6.39189 15.4773 5.8076 15.4773 5.08698C15.4773 4.36635 16.0632 3.78206 16.7859 3.78206C17.5085 3.78206 18.0945 4.36635 18.0945 5.08698ZM21.8103 6.41137C21.7273 4.66337 21.3269 3.115 20.0427 1.8393C18.7634 0.563596 17.2107 0.164332 15.4578 0.0766881C13.6511 -0.0255627 8.23608 -0.0255627 6.42944 0.0766881C4.6814 0.159463 3.12866 0.558727 1.84448 1.83443C0.560303 3.11013 0.164795 4.6585 0.0769043 6.4065C-0.0256348 8.20806 -0.0256348 13.6079 0.0769043 15.4094C0.159912 17.1574 0.560303 18.7058 1.84448 19.9815C3.12866 21.2572 4.67651 21.6565 6.42944 21.7441C8.23608 21.8464 13.6511 21.8464 15.4578 21.7441C17.2107 21.6613 18.7634 21.2621 20.0427 19.9815C21.322 18.7058 21.7224 17.1574 21.8103 15.4094C21.9128 13.6079 21.9128 8.21293 21.8103 6.41137ZM19.4763 17.3425C19.0955 18.2968 18.3582 19.032 17.3962 19.4167C15.9558 19.9864 12.5378 19.8549 10.946 19.8549C9.35425 19.8549 5.9314 19.9815 4.49585 19.4167C3.53882 19.0369 2.80151 18.3017 2.41577 17.3425C1.84448 15.9061 1.97632 12.4977 1.97632 10.9104C1.97632 9.32308 1.84937 5.90985 2.41577 4.47834C2.79663 3.524 3.53394 2.78877 4.49585 2.40411C5.93628 1.83443 9.35425 1.96589 10.946 1.96589C12.5378 1.96589 15.9607 1.8393 17.3962 2.40411C18.3533 2.7839 19.0906 3.51913 19.4763 4.47834C20.0476 5.91472 19.9158 9.32308 19.9158 10.9104C19.9158 12.4977 20.0476 15.9109 19.4763 17.3425Z" fill="#2DEBDB"/>
</svg>
