<svg width="25" height="26" viewBox="0 0 25 26" fill="none" xmlns="http://www.w3.org/2000/svg">
<path d="M22.9597 0.917358H2.4774C1.53888 0.917358 0.776321 1.72019 0.776321 2.70573V23.9337C0.776321 24.9192 1.53888 25.722 2.4774 25.722H22.9597C23.8982 25.722 24.6661 24.9192 24.6661 23.9337V2.70573C24.6661 1.72019 23.8982 0.917358 22.9597 0.917358ZM7.99659 22.1785H4.45578V10.3409H8.00192V22.1785H7.99659ZM6.22618 8.72419C5.09035 8.72419 4.17315 7.76633 4.17315 6.59254C4.17315 5.41875 5.09035 4.46089 6.22618 4.46089C7.35668 4.46089 8.27921 5.41875 8.27921 6.59254C8.27921 7.77187 7.36201 8.72419 6.22618 8.72419ZM21.2693 22.1785H17.7285V16.4203C17.7285 15.0472 17.7018 13.2809 15.8888 13.2809C14.0437 13.2809 13.7611 14.7759 13.7611 16.3206V22.1785H10.2203V10.3409H13.6171V11.9577H13.6651C14.1397 11.0275 15.2968 10.0475 17.0193 10.0475C20.6027 10.0475 21.2693 12.5003 21.2693 15.6894V22.1785Z" fill="#2DEBDB"/>
</svg>
