<svg width="560" height="560" viewBox="0 0 560 560" fill="none" xmlns="http://www.w3.org/2000/svg">
<g clip-path="url(#clip0_401_2)">
<path d="M280 560C434.64 560 560 434.64 560 280C560 125.36 434.64 0 280 0C125.36 0 0 125.36 0 280C0 434.64 125.36 560 280 560Z" fill="#2DEBDB"/>
<path d="M438.474 257.291V188.549L280 96.8523L198.124 144.235L262.937 182.166L246.857 192.477L181.429 153.932L121.526 188.672L121.771 371.942L203.893 418.957V344.568L219.605 353.652V427.918L280.982 463.393L438.597 371.328V275.826L374.765 313.266V295.099L438.474 257.291ZM203.402 235.809L212.117 231.021L276.686 268.338L345.427 229.917L355.739 235.809V246.12L290.68 283.928V361.263L280 368.505L271.653 362.613V288.593L203.402 248.698V235.809ZM238.264 325.419L170.75 288.224V362.245L153.196 352.302L152.828 207.698L179.833 191.618L196.405 201.929L170.013 217.887L170.136 266.743L238.141 306.637V325.419H238.264ZM406.681 333.029V353.038L279.509 426.199L252.749 410.364V391.337L280 406.681L323.7 381.394V302.709L340.149 292.153L340.64 371.328L406.681 333.029ZM345.059 191.495L277.177 230.776L262.078 221.447L328.365 182.288L263.183 144.603L280 134.783L406.19 207.944V238.387L388.514 248.821V217.519L345.059 191.495Z" fill="#1A9288"/>
</g>
<defs>
<clipPath id="clip0_401_2">
<rect width="560" height="560" fill="white"/>
</clipPath>
</defs>
</svg>
